<mxfile host="app.diagrams.net" modified="2021-03-16T08:41:49.873Z" agent="5.0 (Windows NT 10.0; Win64; x64) AppleWebKit/537.36 (KHTML, like Gecko) Chrome/89.0.4389.82 Safari/537.36 Edg/89.0.774.48" etag="7RSSGtZ9gZu3KX5_uLFT" version="14.2.7" type="github">
  <diagram id="C5RBs43oDa-KdzZeNtuy" name="Page-1">
    <mxGraphModel dx="2190" dy="722" grid="1" gridSize="10" guides="1" tooltips="1" connect="1" arrows="1" fold="1" page="1" pageScale="1" pageWidth="827" pageHeight="1169" math="0" shadow="0">
      <root>
        <mxCell id="WIyWlLk6GJQsqaUBKTNV-0" />
        <mxCell id="WIyWlLk6GJQsqaUBKTNV-1" parent="WIyWlLk6GJQsqaUBKTNV-0" />
        <mxCell id="TdWSQypJk0wF6uqu63u2-0" value="" style="rounded=1;whiteSpace=wrap;html=1;" vertex="1" parent="WIyWlLk6GJQsqaUBKTNV-1">
          <mxGeometry x="330" y="10" width="150" height="140" as="geometry" />
        </mxCell>
        <mxCell id="TdWSQypJk0wF6uqu63u2-12" style="edgeStyle=orthogonalEdgeStyle;rounded=0;orthogonalLoop=1;jettySize=auto;html=1;" edge="1" parent="WIyWlLk6GJQsqaUBKTNV-1" source="TdWSQypJk0wF6uqu63u2-1">
          <mxGeometry relative="1" as="geometry">
            <mxPoint x="220" y="70" as="targetPoint" />
          </mxGeometry>
        </mxCell>
        <mxCell id="TdWSQypJk0wF6uqu63u2-1" value="3-axis accelerometer" style="rounded=1;whiteSpace=wrap;html=1;" vertex="1" parent="WIyWlLk6GJQsqaUBKTNV-1">
          <mxGeometry x="352.5" y="50" width="105" height="40" as="geometry" />
        </mxCell>
        <mxCell id="TdWSQypJk0wF6uqu63u2-16" style="edgeStyle=orthogonalEdgeStyle;rounded=0;orthogonalLoop=1;jettySize=auto;html=1;" edge="1" parent="WIyWlLk6GJQsqaUBKTNV-1" source="TdWSQypJk0wF6uqu63u2-2">
          <mxGeometry relative="1" as="geometry">
            <mxPoint x="580" y="120" as="targetPoint" />
          </mxGeometry>
        </mxCell>
        <mxCell id="TdWSQypJk0wF6uqu63u2-2" value="3-axis gyroscope" style="rounded=1;whiteSpace=wrap;html=1;" vertex="1" parent="WIyWlLk6GJQsqaUBKTNV-1">
          <mxGeometry x="350" y="100" width="110" height="40" as="geometry" />
        </mxCell>
        <mxCell id="TdWSQypJk0wF6uqu63u2-11" value="MPU6050 IMU" style="text;html=1;strokeColor=none;fillColor=none;align=center;verticalAlign=middle;whiteSpace=wrap;rounded=0;" vertex="1" parent="WIyWlLk6GJQsqaUBKTNV-1">
          <mxGeometry x="385" y="20" width="40" height="20" as="geometry" />
        </mxCell>
        <mxCell id="TdWSQypJk0wF6uqu63u2-14" value="a&lt;sub&gt;r&lt;br&gt;&lt;/sub&gt;(ax&lt;sub&gt;r,&lt;/sub&gt;ay&lt;sub&gt;r&lt;/sub&gt;,az&lt;sub&gt;r&lt;/sub&gt;)" style="text;html=1;align=center;verticalAlign=middle;resizable=0;points=[];autosize=1;" vertex="1" parent="WIyWlLk6GJQsqaUBKTNV-1">
          <mxGeometry x="240" y="30" width="80" height="40" as="geometry" />
        </mxCell>
        <mxCell id="TdWSQypJk0wF6uqu63u2-17" value="&lt;sub&gt;&lt;span style=&quot;font-size: 12px&quot;&gt;g&lt;/span&gt;r&lt;br&gt;&lt;/sub&gt;(gx&lt;sub&gt;r,&lt;/sub&gt;gy&lt;sub&gt;r&lt;/sub&gt;,gz&lt;sub&gt;r&lt;/sub&gt;)" style="text;html=1;align=center;verticalAlign=middle;resizable=0;points=[];autosize=1;" vertex="1" parent="WIyWlLk6GJQsqaUBKTNV-1">
          <mxGeometry x="480" y="80" width="80" height="40" as="geometry" />
        </mxCell>
        <mxCell id="TdWSQypJk0wF6uqu63u2-20" style="edgeStyle=orthogonalEdgeStyle;rounded=0;orthogonalLoop=1;jettySize=auto;html=1;" edge="1" parent="WIyWlLk6GJQsqaUBKTNV-1" source="TdWSQypJk0wF6uqu63u2-18">
          <mxGeometry relative="1" as="geometry">
            <mxPoint x="80" y="70" as="targetPoint" />
          </mxGeometry>
        </mxCell>
        <mxCell id="TdWSQypJk0wF6uqu63u2-18" value="P1" style="rounded=0;whiteSpace=wrap;html=1;" vertex="1" parent="WIyWlLk6GJQsqaUBKTNV-1">
          <mxGeometry x="160" y="50" width="60" height="40" as="geometry" />
        </mxCell>
        <mxCell id="TdWSQypJk0wF6uqu63u2-21" style="edgeStyle=orthogonalEdgeStyle;rounded=0;orthogonalLoop=1;jettySize=auto;html=1;" edge="1" parent="WIyWlLk6GJQsqaUBKTNV-1" source="TdWSQypJk0wF6uqu63u2-19">
          <mxGeometry relative="1" as="geometry">
            <mxPoint x="690" y="120" as="targetPoint" />
          </mxGeometry>
        </mxCell>
        <mxCell id="TdWSQypJk0wF6uqu63u2-19" value="P2" style="rounded=0;whiteSpace=wrap;html=1;" vertex="1" parent="WIyWlLk6GJQsqaUBKTNV-1">
          <mxGeometry x="560" y="100" width="50" height="40" as="geometry" />
        </mxCell>
        <mxCell id="TdWSQypJk0wF6uqu63u2-44" style="edgeStyle=orthogonalEdgeStyle;rounded=0;orthogonalLoop=1;jettySize=auto;html=1;entryX=0.5;entryY=0;entryDx=0;entryDy=0;" edge="1" parent="WIyWlLk6GJQsqaUBKTNV-1" source="TdWSQypJk0wF6uqu63u2-22" target="TdWSQypJk0wF6uqu63u2-41">
          <mxGeometry relative="1" as="geometry">
            <Array as="points">
              <mxPoint x="107" y="140" />
              <mxPoint x="107" y="140" />
            </Array>
          </mxGeometry>
        </mxCell>
        <mxCell id="TdWSQypJk0wF6uqu63u2-60" style="edgeStyle=orthogonalEdgeStyle;rounded=0;orthogonalLoop=1;jettySize=auto;html=1;entryX=0;entryY=0.5;entryDx=0;entryDy=0;" edge="1" parent="WIyWlLk6GJQsqaUBKTNV-1" source="TdWSQypJk0wF6uqu63u2-22" target="TdWSQypJk0wF6uqu63u2-56">
          <mxGeometry relative="1" as="geometry">
            <mxPoint x="120" y="140" as="targetPoint" />
            <Array as="points">
              <mxPoint x="120" y="140" />
            </Array>
          </mxGeometry>
        </mxCell>
        <mxCell id="TdWSQypJk0wF6uqu63u2-22" value="a&lt;sub&gt;p&lt;br&gt;&lt;/sub&gt;(ax&lt;sub&gt;p,&lt;/sub&gt;ay&lt;span style=&quot;font-size: 10px&quot;&gt;&lt;sub&gt;p&lt;/sub&gt;&lt;/span&gt;,az&lt;span style=&quot;font-size: 10px&quot;&gt;&lt;sub&gt;p&lt;/sub&gt;&lt;/span&gt;)" style="text;html=1;align=center;verticalAlign=middle;resizable=0;points=[];autosize=1;" vertex="1" parent="WIyWlLk6GJQsqaUBKTNV-1">
          <mxGeometry x="80" y="30" width="80" height="40" as="geometry" />
        </mxCell>
        <mxCell id="TdWSQypJk0wF6uqu63u2-23" value="&lt;sub&gt;&lt;span style=&quot;font-size: 12px&quot;&gt;g&lt;/span&gt;p&lt;br&gt;&lt;/sub&gt;(gx&lt;sub&gt;p,&lt;/sub&gt;gy&lt;span style=&quot;font-size: 10px&quot;&gt;&lt;sub&gt;p&lt;/sub&gt;&lt;/span&gt;,gz&lt;span style=&quot;font-size: 10px&quot;&gt;&lt;sub&gt;p&lt;/sub&gt;&lt;/span&gt;)" style="text;html=1;align=center;verticalAlign=middle;resizable=0;points=[];autosize=1;" vertex="1" parent="WIyWlLk6GJQsqaUBKTNV-1">
          <mxGeometry x="610" y="80" width="80" height="40" as="geometry" />
        </mxCell>
        <mxCell id="TdWSQypJk0wF6uqu63u2-24" value="" style="endArrow=classic;html=1;" edge="1" parent="WIyWlLk6GJQsqaUBKTNV-1">
          <mxGeometry width="50" height="50" relative="1" as="geometry">
            <mxPoint x="500" y="120" as="sourcePoint" />
            <mxPoint x="560" y="120" as="targetPoint" />
            <Array as="points" />
          </mxGeometry>
        </mxCell>
        <mxCell id="TdWSQypJk0wF6uqu63u2-35" style="edgeStyle=orthogonalEdgeStyle;rounded=0;orthogonalLoop=1;jettySize=auto;html=1;exitX=0.5;exitY=1;exitDx=0;exitDy=0;entryX=0;entryY=0.5;entryDx=0;entryDy=0;" edge="1" parent="WIyWlLk6GJQsqaUBKTNV-1" source="TdWSQypJk0wF6uqu63u2-25" target="TdWSQypJk0wF6uqu63u2-33">
          <mxGeometry relative="1" as="geometry">
            <mxPoint x="49.82758620689651" y="179.9999999999999" as="targetPoint" />
          </mxGeometry>
        </mxCell>
        <mxCell id="TdWSQypJk0wF6uqu63u2-25" value="P3" style="rounded=0;whiteSpace=wrap;html=1;" vertex="1" parent="WIyWlLk6GJQsqaUBKTNV-1">
          <mxGeometry x="20" y="50" width="60" height="50" as="geometry" />
        </mxCell>
        <mxCell id="TdWSQypJk0wF6uqu63u2-36" style="edgeStyle=orthogonalEdgeStyle;rounded=0;orthogonalLoop=1;jettySize=auto;html=1;exitX=0.5;exitY=1;exitDx=0;exitDy=0;entryX=1;entryY=0.5;entryDx=0;entryDy=0;" edge="1" parent="WIyWlLk6GJQsqaUBKTNV-1" source="TdWSQypJk0wF6uqu63u2-27" target="TdWSQypJk0wF6uqu63u2-33">
          <mxGeometry relative="1" as="geometry">
            <mxPoint x="725" y="189.9999999999999" as="targetPoint" />
          </mxGeometry>
        </mxCell>
        <mxCell id="TdWSQypJk0wF6uqu63u2-27" value="P4" style="rounded=0;whiteSpace=wrap;html=1;" vertex="1" parent="WIyWlLk6GJQsqaUBKTNV-1">
          <mxGeometry x="690" y="100" width="70" height="45" as="geometry" />
        </mxCell>
        <mxCell id="TdWSQypJk0wF6uqu63u2-29" value="a&lt;sub&gt;ang&lt;br&gt;&lt;/sub&gt;(ax&lt;sub&gt;ang,&lt;/sub&gt;ay&lt;sub&gt;ang&lt;/sub&gt;)&lt;sub&gt;&lt;br&gt;&lt;br&gt;&lt;/sub&gt;" style="text;html=1;align=center;verticalAlign=middle;resizable=0;points=[];autosize=1;" vertex="1" parent="WIyWlLk6GJQsqaUBKTNV-1">
          <mxGeometry x="-40" y="110" width="90" height="60" as="geometry" />
        </mxCell>
        <mxCell id="TdWSQypJk0wF6uqu63u2-31" value="&lt;sub style=&quot;color: rgb(0 , 0 , 0) ; font-family: &amp;#34;helvetica&amp;#34; ; font-style: normal ; font-weight: 400 ; letter-spacing: normal ; text-align: center ; text-indent: 0px ; text-transform: none ; word-spacing: 0px ; background-color: rgb(248 , 249 , 250)&quot;&gt;&lt;span style=&quot;font-size: 12px&quot;&gt;&amp;nbsp; &amp;nbsp; &amp;nbsp; g&lt;/span&gt;ang&lt;br&gt;&lt;/sub&gt;&lt;span style=&quot;color: rgb(0 , 0 , 0) ; font-family: &amp;#34;helvetica&amp;#34; ; font-size: 12px ; font-style: normal ; font-weight: 400 ; letter-spacing: normal ; text-align: center ; text-indent: 0px ; text-transform: none ; word-spacing: 0px ; background-color: rgb(248 , 249 , 250) ; display: inline ; float: none&quot;&gt;(gx&lt;/span&gt;&lt;sub style=&quot;color: rgb(0 , 0 , 0) ; font-family: &amp;#34;helvetica&amp;#34; ; font-style: normal ; font-weight: 400 ; letter-spacing: normal ; text-align: center ; text-indent: 0px ; text-transform: none ; word-spacing: 0px ; background-color: rgb(248 , 249 , 250)&quot;&gt;ang,&lt;/sub&gt;&lt;span style=&quot;color: rgb(0 , 0 , 0) ; font-family: &amp;#34;helvetica&amp;#34; ; font-style: normal ; font-weight: 400 ; letter-spacing: normal ; text-align: center ; text-indent: 0px ; text-transform: none ; word-spacing: 0px ; background-color: rgb(248 , 249 , 250)&quot;&gt;g&lt;/span&gt;&lt;span style=&quot;color: rgb(0 , 0 , 0) ; font-family: &amp;#34;helvetica&amp;#34; ; font-size: 12px ; font-style: normal ; font-weight: 400 ; letter-spacing: normal ; text-align: center ; text-indent: 0px ; text-transform: none ; word-spacing: 0px ; background-color: rgb(248 , 249 , 250) ; display: inline ; float: none&quot;&gt;y&lt;/span&gt;&lt;sub style=&quot;color: rgb(0 , 0 , 0) ; font-family: &amp;#34;helvetica&amp;#34; ; font-style: normal ; font-weight: 400 ; letter-spacing: normal ; text-align: center ; text-indent: 0px ; text-transform: none ; word-spacing: 0px ; background-color: rgb(248 , 249 , 250)&quot;&gt;ang&lt;/sub&gt;&lt;span style=&quot;color: rgb(0 , 0 , 0) ; font-family: &amp;#34;helvetica&amp;#34; ; font-size: 12px ; font-style: normal ; font-weight: 400 ; letter-spacing: normal ; text-align: center ; text-indent: 0px ; text-transform: none ; word-spacing: 0px ; background-color: rgb(248 , 249 , 250) ; display: inline ; float: none&quot;&gt;)&lt;/span&gt;&lt;sub style=&quot;color: rgb(0 , 0 , 0) ; font-family: &amp;#34;helvetica&amp;#34; ; font-style: normal ; font-weight: 400 ; letter-spacing: normal ; text-align: center ; text-indent: 0px ; text-transform: none ; word-spacing: 0px ; background-color: rgb(248 , 249 , 250)&quot;&gt;&lt;br&gt;&lt;/sub&gt;" style="text;whiteSpace=wrap;html=1;" vertex="1" parent="WIyWlLk6GJQsqaUBKTNV-1">
          <mxGeometry x="727" y="145" width="100" height="50" as="geometry" />
        </mxCell>
        <mxCell id="TdWSQypJk0wF6uqu63u2-43" style="edgeStyle=orthogonalEdgeStyle;rounded=0;orthogonalLoop=1;jettySize=auto;html=1;" edge="1" parent="WIyWlLk6GJQsqaUBKTNV-1" source="TdWSQypJk0wF6uqu63u2-33">
          <mxGeometry relative="1" as="geometry">
            <mxPoint x="520" y="269.9999999999999" as="targetPoint" />
          </mxGeometry>
        </mxCell>
        <mxCell id="TdWSQypJk0wF6uqu63u2-33" value="P4" style="rounded=0;whiteSpace=wrap;html=1;" vertex="1" parent="WIyWlLk6GJQsqaUBKTNV-1">
          <mxGeometry x="480" y="160" width="80" height="50" as="geometry" />
        </mxCell>
        <mxCell id="TdWSQypJk0wF6uqu63u2-39" value="&lt;sub&gt;&lt;span style=&quot;font-size: 12px&quot;&gt;c&lt;/span&gt;ang&lt;br&gt;&lt;/sub&gt;(c&lt;sub&gt;pitch,&lt;/sub&gt;&lt;span style=&quot;font-size: 12px&quot;&gt;c&lt;sub&gt;roll&lt;/sub&gt;&lt;/span&gt;&lt;span style=&quot;font-size: 10px&quot;&gt;,&lt;/span&gt;c&lt;sub&gt;yaw&lt;/sub&gt;)&lt;sub&gt;&lt;br&gt;&lt;br&gt;&lt;/sub&gt;" style="text;html=1;align=center;verticalAlign=middle;resizable=0;points=[];autosize=1;" vertex="1" parent="WIyWlLk6GJQsqaUBKTNV-1">
          <mxGeometry x="535" y="220" width="100" height="60" as="geometry" />
        </mxCell>
        <mxCell id="TdWSQypJk0wF6uqu63u2-45" style="edgeStyle=orthogonalEdgeStyle;rounded=0;orthogonalLoop=1;jettySize=auto;html=1;" edge="1" parent="WIyWlLk6GJQsqaUBKTNV-1" source="TdWSQypJk0wF6uqu63u2-41">
          <mxGeometry relative="1" as="geometry">
            <mxPoint x="210" y="240" as="targetPoint" />
          </mxGeometry>
        </mxCell>
        <mxCell id="TdWSQypJk0wF6uqu63u2-41" value="P5" style="rounded=0;whiteSpace=wrap;html=1;" vertex="1" parent="WIyWlLk6GJQsqaUBKTNV-1">
          <mxGeometry x="74.06" y="220" width="65.94" height="40" as="geometry" />
        </mxCell>
        <mxCell id="TdWSQypJk0wF6uqu63u2-77" style="edgeStyle=orthogonalEdgeStyle;rounded=0;orthogonalLoop=1;jettySize=auto;html=1;entryX=-0.021;entryY=0.712;entryDx=0;entryDy=0;entryPerimeter=0;" edge="1" parent="WIyWlLk6GJQsqaUBKTNV-1" source="TdWSQypJk0wF6uqu63u2-46" target="TdWSQypJk0wF6uqu63u2-49">
          <mxGeometry relative="1" as="geometry" />
        </mxCell>
        <mxCell id="TdWSQypJk0wF6uqu63u2-46" value="P6" style="rounded=0;whiteSpace=wrap;html=1;" vertex="1" parent="WIyWlLk6GJQsqaUBKTNV-1">
          <mxGeometry x="210" y="220" width="60" height="40" as="geometry" />
        </mxCell>
        <mxCell id="TdWSQypJk0wF6uqu63u2-54" style="edgeStyle=orthogonalEdgeStyle;rounded=0;orthogonalLoop=1;jettySize=auto;html=1;" edge="1" parent="WIyWlLk6GJQsqaUBKTNV-1" source="TdWSQypJk0wF6uqu63u2-47">
          <mxGeometry relative="1" as="geometry">
            <mxPoint x="175" y="289.9999999999999" as="targetPoint" />
          </mxGeometry>
        </mxCell>
        <mxCell id="TdWSQypJk0wF6uqu63u2-47" value="v&lt;br&gt;v&lt;sub&gt;x,&lt;/sub&gt;v&lt;sub&gt;y,&lt;/sub&gt;v&lt;sub&gt;z&lt;/sub&gt;" style="text;html=1;align=center;verticalAlign=middle;resizable=0;points=[];autosize=1;" vertex="1" parent="WIyWlLk6GJQsqaUBKTNV-1">
          <mxGeometry x="150" y="200" width="50" height="40" as="geometry" />
        </mxCell>
        <mxCell id="TdWSQypJk0wF6uqu63u2-76" style="edgeStyle=orthogonalEdgeStyle;rounded=0;orthogonalLoop=1;jettySize=auto;html=1;entryX=0.5;entryY=0;entryDx=0;entryDy=0;" edge="1" parent="WIyWlLk6GJQsqaUBKTNV-1" source="TdWSQypJk0wF6uqu63u2-49" target="TdWSQypJk0wF6uqu63u2-72">
          <mxGeometry relative="1" as="geometry" />
        </mxCell>
        <mxCell id="TdWSQypJk0wF6uqu63u2-49" value="s&lt;br&gt;&lt;span style=&quot;font-size: 12px&quot;&gt;s&lt;/span&gt;&lt;sub&gt;x,&lt;/sub&gt;&lt;span style=&quot;font-size: 12px&quot;&gt;s&lt;/span&gt;&lt;sub&gt;y,&lt;/sub&gt;&lt;span style=&quot;font-size: 12px&quot;&gt;s&lt;/span&gt;&lt;sub&gt;z&lt;/sub&gt;" style="text;html=1;align=center;verticalAlign=middle;resizable=0;points=[];autosize=1;" vertex="1" parent="WIyWlLk6GJQsqaUBKTNV-1">
          <mxGeometry x="300" y="210" width="50" height="40" as="geometry" />
        </mxCell>
        <mxCell id="TdWSQypJk0wF6uqu63u2-69" style="edgeStyle=orthogonalEdgeStyle;rounded=0;orthogonalLoop=1;jettySize=auto;html=1;" edge="1" parent="WIyWlLk6GJQsqaUBKTNV-1" source="TdWSQypJk0wF6uqu63u2-55">
          <mxGeometry relative="1" as="geometry">
            <mxPoint x="175" y="389.9999999999999" as="targetPoint" />
          </mxGeometry>
        </mxCell>
        <mxCell id="TdWSQypJk0wF6uqu63u2-55" value="P9" style="rounded=0;whiteSpace=wrap;html=1;" vertex="1" parent="WIyWlLk6GJQsqaUBKTNV-1">
          <mxGeometry x="145" y="290" width="60" height="40" as="geometry" />
        </mxCell>
        <mxCell id="TdWSQypJk0wF6uqu63u2-61" style="edgeStyle=orthogonalEdgeStyle;rounded=0;orthogonalLoop=1;jettySize=auto;html=1;" edge="1" parent="WIyWlLk6GJQsqaUBKTNV-1" source="TdWSQypJk0wF6uqu63u2-56">
          <mxGeometry relative="1" as="geometry">
            <mxPoint x="270" y="139.9999999999999" as="targetPoint" />
          </mxGeometry>
        </mxCell>
        <mxCell id="TdWSQypJk0wF6uqu63u2-56" value="P8" style="rounded=0;whiteSpace=wrap;html=1;" vertex="1" parent="WIyWlLk6GJQsqaUBKTNV-1">
          <mxGeometry x="140" y="120" width="60" height="40" as="geometry" />
        </mxCell>
        <mxCell id="TdWSQypJk0wF6uqu63u2-67" value="&amp;nbsp;da&lt;br&gt;(dax&lt;sub&gt;p,&lt;/sub&gt;day&lt;span style=&quot;font-size: 10px&quot;&gt;&lt;sub&gt;p&lt;/sub&gt;&lt;/span&gt;,daz&lt;span style=&quot;font-size: 10px&quot;&gt;&lt;sub&gt;p&lt;/sub&gt;&lt;/span&gt;)" style="text;html=1;align=center;verticalAlign=middle;resizable=0;points=[];autosize=1;" vertex="1" parent="WIyWlLk6GJQsqaUBKTNV-1">
          <mxGeometry x="200" y="102.5" width="100" height="40" as="geometry" />
        </mxCell>
        <mxCell id="TdWSQypJk0wF6uqu63u2-70" value="&lt;span style=&quot;color: rgb(0 , 0 , 0) ; font-family: &amp;#34;helvetica&amp;#34; ; font-size: 12px ; font-style: normal ; font-weight: 400 ; letter-spacing: normal ; text-align: center ; text-indent: 0px ; text-transform: none ; word-spacing: 0px ; background-color: rgb(248 , 249 , 250) ; display: inline ; float: none&quot;&gt;&amp;nbsp; &amp;nbsp; &amp;nbsp; dv&lt;/span&gt;&lt;br style=&quot;color: rgb(0 , 0 , 0) ; font-family: &amp;#34;helvetica&amp;#34; ; font-size: 12px ; font-style: normal ; font-weight: 400 ; letter-spacing: normal ; text-align: center ; text-indent: 0px ; text-transform: none ; word-spacing: 0px ; background-color: rgb(248 , 249 , 250)&quot;&gt;&lt;span style=&quot;color: rgb(0 , 0 , 0) ; font-family: &amp;#34;helvetica&amp;#34; ; font-size: 12px ; font-style: normal ; font-weight: 400 ; letter-spacing: normal ; text-align: center ; text-indent: 0px ; text-transform: none ; word-spacing: 0px ; background-color: rgb(248 , 249 , 250) ; display: inline ; float: none&quot;&gt;(dv&lt;sub&gt;x&lt;/sub&gt;&lt;/span&gt;&lt;sub style=&quot;color: rgb(0 , 0 , 0) ; font-family: &amp;#34;helvetica&amp;#34; ; font-style: normal ; font-weight: 400 ; letter-spacing: normal ; text-align: center ; text-indent: 0px ; text-transform: none ; word-spacing: 0px ; background-color: rgb(248 , 249 , 250)&quot;&gt;,&lt;/sub&gt;&lt;span style=&quot;color: rgb(0 , 0 , 0) ; font-family: &amp;#34;helvetica&amp;#34; ; font-size: 12px ; font-style: normal ; font-weight: 400 ; letter-spacing: normal ; text-align: center ; text-indent: 0px ; text-transform: none ; word-spacing: 0px ; background-color: rgb(248 , 249 , 250) ; display: inline ; float: none&quot;&gt;dv&lt;sub&gt;y&lt;/sub&gt;&lt;/span&gt;&lt;span style=&quot;color: rgb(0 , 0 , 0) ; font-family: &amp;#34;helvetica&amp;#34; ; font-size: 12px ; font-style: normal ; font-weight: 400 ; letter-spacing: normal ; text-align: center ; text-indent: 0px ; text-transform: none ; word-spacing: 0px ; background-color: rgb(248 , 249 , 250) ; display: inline ; float: none&quot;&gt;,dv&lt;sub&gt;z&lt;/sub&gt;&lt;/span&gt;&lt;span style=&quot;color: rgb(0 , 0 , 0) ; font-family: &amp;#34;helvetica&amp;#34; ; font-size: 12px ; font-style: normal ; font-weight: 400 ; letter-spacing: normal ; text-align: center ; text-indent: 0px ; text-transform: none ; word-spacing: 0px ; background-color: rgb(248 , 249 , 250) ; display: inline ; float: none&quot;&gt;)&lt;/span&gt;" style="text;whiteSpace=wrap;html=1;" vertex="1" parent="WIyWlLk6GJQsqaUBKTNV-1">
          <mxGeometry x="100" y="330" width="110" height="50" as="geometry" />
        </mxCell>
        <mxCell id="TdWSQypJk0wF6uqu63u2-73" style="edgeStyle=orthogonalEdgeStyle;rounded=0;orthogonalLoop=1;jettySize=auto;html=1;" edge="1" parent="WIyWlLk6GJQsqaUBKTNV-1" source="TdWSQypJk0wF6uqu63u2-72">
          <mxGeometry relative="1" as="geometry">
            <mxPoint x="305" y="389.9999999999999" as="targetPoint" />
          </mxGeometry>
        </mxCell>
        <mxCell id="TdWSQypJk0wF6uqu63u2-72" value="P10" style="rounded=0;whiteSpace=wrap;html=1;" vertex="1" parent="WIyWlLk6GJQsqaUBKTNV-1">
          <mxGeometry x="275" y="290" width="60" height="40" as="geometry" />
        </mxCell>
        <mxCell id="TdWSQypJk0wF6uqu63u2-74" value="&lt;span style=&quot;color: rgb(0 , 0 , 0) ; font-size: 12px ; font-style: normal ; font-weight: 400 ; letter-spacing: normal ; text-indent: 0px ; text-transform: none ; word-spacing: 0px ; font-family: &amp;#34;helvetica&amp;#34; ; text-align: center ; background-color: rgb(248 , 249 , 250) ; display: inline ; float: none&quot;&gt;&amp;nbsp;ds&lt;/span&gt;&lt;br style=&quot;color: rgb(0 , 0 , 0) ; font-size: 12px ; font-style: normal ; font-weight: 400 ; letter-spacing: normal ; text-indent: 0px ; text-transform: none ; word-spacing: 0px ; font-family: &amp;#34;helvetica&amp;#34; ; text-align: center ; background-color: rgb(248 , 249 , 250)&quot;&gt;&lt;span style=&quot;color: rgb(0 , 0 , 0) ; font-size: 12px ; font-style: normal ; font-weight: 400 ; letter-spacing: normal ; text-indent: 0px ; text-transform: none ; word-spacing: 0px ; font-family: &amp;#34;helvetica&amp;#34; ; text-align: center ; background-color: rgb(248 , 249 , 250) ; display: inline ; float: none&quot;&gt;(ds&lt;sub&gt;x&lt;/sub&gt;&lt;/span&gt;&lt;sub style=&quot;color: rgb(0 , 0 , 0) ; font-style: normal ; font-weight: 400 ; letter-spacing: normal ; text-indent: 0px ; text-transform: none ; word-spacing: 0px ; font-family: &amp;#34;helvetica&amp;#34; ; text-align: center ; background-color: rgb(248 , 249 , 250)&quot;&gt;,&lt;/sub&gt;&lt;span style=&quot;color: rgb(0 , 0 , 0) ; font-size: 12px ; font-style: normal ; font-weight: 400 ; letter-spacing: normal ; text-indent: 0px ; text-transform: none ; word-spacing: 0px ; font-family: &amp;#34;helvetica&amp;#34; ; text-align: center ; background-color: rgb(248 , 249 , 250) ; display: inline ; float: none&quot;&gt;ds&lt;sub&gt;y&lt;/sub&gt;&lt;/span&gt;&lt;span style=&quot;color: rgb(0 , 0 , 0) ; font-size: 12px ; font-style: normal ; font-weight: 400 ; letter-spacing: normal ; text-indent: 0px ; text-transform: none ; word-spacing: 0px ; font-family: &amp;#34;helvetica&amp;#34; ; text-align: center ; background-color: rgb(248 , 249 , 250) ; display: inline ; float: none&quot;&gt;,ds&lt;sub&gt;z&lt;/sub&gt;&lt;/span&gt;&lt;span style=&quot;color: rgb(0 , 0 , 0) ; font-size: 12px ; font-style: normal ; font-weight: 400 ; letter-spacing: normal ; text-indent: 0px ; text-transform: none ; word-spacing: 0px ; font-family: &amp;#34;helvetica&amp;#34; ; text-align: center ; background-color: rgb(248 , 249 , 250) ; display: inline ; float: none&quot;&gt;)&lt;/span&gt;&lt;br&gt;" style="text;html=1;align=center;verticalAlign=middle;resizable=0;points=[];autosize=1;" vertex="1" parent="WIyWlLk6GJQsqaUBKTNV-1">
          <mxGeometry x="310" y="330" width="80" height="40" as="geometry" />
        </mxCell>
      </root>
    </mxGraphModel>
  </diagram>
</mxfile>
